Coordinates
version=1
nRows=11
nColumns=63
inDegrees=yes

Units are S.I. units (second, meters, Newtons, ...)
If the header above contains a line with 'inDegrees', this indicates whether rotational values are in degrees (yes) or radians (no).

endheader
time	pelvis_tilt	pelvis_list	pelvis_rotation	pelvis_tx	pelvis_ty	pelvis_tz	hip_flexion_r	hip_adduction_r	hip_rotation_r	knee_angle_r	knee_angle_r_beta	ankle_angle_r	subtalar_angle_r	mtp_angle_r	hip_flexion_l	hip_adduction_l	hip_rotation_l	knee_angle_l	knee_angle_l_beta	ankle_angle_l	subtalar_angle_l	mtp_angle_l	L5_S1_Flex_Ext	L5_S1_Lat_Bending	L5_S1_axial_rotation	L4_L5_Flex_Ext	L4_L5_Lat_Bending	L4_L5_axial_rotation	L3_L4_Flex_Ext	L3_L4_Lat_Bending	L3_L4_axial_rotation	L2_L3_Flex_Ext	L2_L3_Lat_Bending	L2_L3_axial_rotation	L1_L2_Flex_Ext	L1_L2_Lat_Bending	L1_L2_axial_rotation	L1_T12_Flex_Ext	L1_T12_Lat_Bending	L1_T12_axial_rotation	Abs_r3	Abs_r2	Abs_r1	Abs_t1	Abs_t2	neck_flexion	neck_bending	neck_rotation	arm_flex_r	arm_add_r	arm_rot_r	elbow_flex_r	pro_sup_r	wrist_flex_r	wrist_dev_r	arm_flex_l	arm_add_l	arm_rot_l	elbow_flex_l	pro_sup_l	wrist_flex_l	wrist_dev_l
      7.88300000	    -40.88290323	      2.94724295	     -0.53070771	     -0.15806902	      1.02861218	      0.03954123	     95.95246250	     -6.02286251	      5.30884886	    105.37035667	      1.83905966	     -1.53376381	    -15.13784191	      0.00000000	     91.07581679	     -4.75487932	     -2.72820614	     59.37155531	      1.03622912	      5.39398225	    -13.11053480	      0.00000000	     -0.06936661	     -0.29206638	     -0.13353461	     -0.12882074	     -0.38844828	     -0.14188053	     -0.11396241	     -0.71013019	     -0.14188053	     -0.07927910	     -0.71013019	     -0.11684279	     -0.06441384	     -0.59558175	     -0.10849687	     -0.03963608	     -0.45241082	     -0.10015096	     -0.49547877	     -3.30391325	     -0.74267946	      0.00000000	      0.00000000	     -0.00000000	      0.00000000	      0.00000000	     64.92690899	    -13.34796834	     24.08241498	     46.65879239	     62.63961851	      0.00000000	      5.00000014	     66.36591846	    -21.98843492	     27.30810286	     50.23479223	     62.43874987	      0.00000000	      5.00000014
      7.89200000	    -40.78926386	      2.49961073	     -0.82310930	     -0.15727519	      1.02840906	      0.03907994	     97.17768535	     -5.74784608	      5.04667607	    107.20008582	      1.87099446	     -1.73740539	    -15.49829596	      0.00000000	     89.16713641	     -4.94513295	     -2.59353724	     56.89135292	      0.99294142	      6.08457090	    -12.88225550	      0.00000000	     -0.06726046	     -0.21347215	     -0.07601476	     -0.12490940	     -0.28391796	     -0.08076568	     -0.11050221	     -0.51903619	     -0.08076568	     -0.07687198	     -0.51903619	     -0.06651292	     -0.06245806	     -0.43531241	     -0.06176199	     -0.03843263	     -0.33066836	     -0.05701107	     -0.48043475	     -2.41483969	     -0.42277130	      0.00000000	      0.00000000	     -0.00000000	      0.00000000	      0.00000000	     65.07937817	    -13.42325864	     24.50279359	     46.62129542	     62.69089744	      0.00000000	      5.00000014	     66.13605641	    -21.87790263	     27.17830611	     50.03368018	     62.42713009	      0.00000000	      5.00000014
      7.90000000	    -40.72666900	      2.02687260	     -1.25294619	     -0.15662369	      1.02828433	      0.03879057	     98.40382576	     -5.39367037	      4.68390013	    108.85243052	      1.89983331	     -1.57555066	    -15.53448959	      0.00000000	     87.39186192	     -5.29936594	     -2.31980273	     54.56183822	      0.95228372	      6.24115837	    -12.54117225	      0.00000000	     -0.06730836	     -0.12893589	      0.00557125	     -0.12499835	     -0.17148474	      0.00591945	     -0.11058090	     -0.31349473	      0.00591945	     -0.07692672	     -0.31349473	      0.00487485	     -0.06250254	     -0.26292607	      0.00452664	     -0.03845999	     -0.19972170	      0.00417844	     -0.48077686	     -1.45854861	      0.03098563	      0.00000000	      0.00000000	     -0.00000000	      0.00000000	      0.00000000	     65.25587974	    -13.48311384	     24.72783667	     46.60806308	     62.68819522	      0.00000000	      5.00000014	     65.91615781	    -21.88237628	     27.19710530	     49.90704862	     62.40173498	      0.00000000	      5.00000014
      7.90800000	    -40.60842384	      1.52962401	     -1.44332170	     -0.15576792	      1.02789201	      0.03815199	     99.64259577	     -5.31670604	      4.21082511	    110.53118709	      1.92913314	     -1.71917947	    -16.24943624	      0.00000000	     85.54222336	     -5.47674756	     -2.04120603	     52.35091540	      0.91369584	      7.87297275	    -11.39595741	      0.00000000	     -0.06733228	     -0.04175631	      0.03702196	     -0.12504278	     -0.05553590	      0.03933583	     -0.11062021	     -0.10152630	      0.03933583	     -0.07695407	     -0.10152630	      0.03239421	     -0.06252476	     -0.08514948	      0.03008034	     -0.03847367	     -0.06468053	      0.02776647	     -0.48094776	     -0.47235578	      0.20590502	      0.00000000	      0.00000000	     -0.00000000	      0.00000000	      0.00000000	     65.69117166	    -13.81159567	     26.32529597	     46.44848677	     62.95860700	      0.00000000	      5.00000014	     65.69811237	    -21.81579698	     27.08055215	     49.59770893	     62.47261221	      0.00000000	      5.00000014
      7.91700000	    -40.52291816	      1.00446226	     -1.72579856	     -0.15494260	      1.02759353	      0.03763808	    100.83772160	     -5.16480629	      3.73063835	    112.03242519	      1.95533469	     -1.15088425	    -16.31104193	      0.00000000	     83.81057231	     -5.74070994	     -1.68439387	     50.29285301	      0.87777588	      8.62352759	    -11.00422783	      0.00000000	     -0.06606535	      0.04952269	      0.08923225	     -0.12268995	      0.06586518	      0.09480926	     -0.10853876	      0.12040947	      0.09480926	     -0.07550608	      0.12040947	      0.07807822	     -0.06134828	      0.10098667	      0.07250120	     -0.03774974	      0.07671065	      0.06692419	     -0.47189815	      0.56021059	      0.49628299	      0.00000000	      0.00000000	     -0.00000000	      0.00000000	      0.00000000	     65.90825321	    -13.95752686	     26.90702396	     46.43014768	     63.06450061	      0.00000000	      5.00000014	     65.50668071	    -21.76962730	     27.17616348	     49.33153081	     62.52236418	      0.00000000	      5.00000014
      7.92500000	    -40.46328621	      0.51344540	     -2.00410546	     -0.15423934	      1.02734316	      0.03727255	    102.08077311	     -4.97683533	      3.28493067	    113.40088382	      1.97921880	     -0.62452786	    -16.27952159	      0.00000000	     82.18290642	     -6.06418911	     -1.45749304	     48.38720668	      0.84451607	      8.79771730	    -10.80034770	      0.00000000	     -0.06503214	      0.13434950	      0.14100272	     -0.12077118	      0.17868484	      0.14981539	     -0.10684130	      0.32665738	      0.14981539	     -0.07432523	      0.32665738	      0.12337738	     -0.06038884	      0.27396551	      0.11456471	     -0.03715936	      0.20810738	      0.10575204	     -0.46451806	      1.51978844	      0.78421485	      0.00000000	      0.00000000	     -0.00000000	      0.00000000	      0.00000000	     66.05285386	    -14.06374709	     27.16231598	     46.42711720	     63.08541269	      0.00000000	      5.00000014	     65.34390641	    -21.77091072	     27.29807274	     49.15122184	     62.52928563	      0.00000000	      5.00000014
      7.93300000	    -40.36386282	      0.02291780	     -2.05288715	     -0.15343229	      1.02693960	      0.03651947	    103.24773034	     -5.03848863	      2.88440104	    114.72986478	      2.00241389	      0.33444946	    -16.26579125	      0.00000000	     80.57197242	     -6.18812428	     -1.24761967	     46.67608510	      0.81465137	      9.46721337	    -10.43417426	      0.00000000	     -0.06537073	      0.21939861	      0.15283541	     -0.12139997	      0.29180014	      0.16238762	     -0.10739757	      0.53344577	      0.16238762	     -0.07471220	      0.53344577	      0.13373098	     -0.06070326	      0.44739764	      0.12417877	     -0.03735283	      0.33984844	      0.11462656	     -0.46693656	      2.48188090	      0.85002469	      0.00000000	      0.00000000	     -0.00000000	      0.00000000	      0.00000000	     66.31191055	    -14.36481339	     28.12094434	     46.40391345	     63.25651082	      0.00000000	      5.00000014	     65.23683544	    -21.71023749	     27.52670099	     48.79430637	     62.61672451	      0.00000000	      5.00000014
      7.94200000	    -40.35142243	     -0.42468273	     -2.25924308	     -0.15292636	      1.02673984	      0.03615003	    104.50907768	     -4.91146630	      2.45715441	    115.78311846	      2.02079664	      0.90543346	    -16.22912359	      0.00000000	     79.14886018	     -6.51428342	     -1.20225856	     45.14555104	      0.78793851	      9.16184999	    -10.14331336	      0.00000000	     -0.06360494	      0.29713410	      0.19448741	     -0.11812074	      0.39518835	      0.20664287	     -0.10449656	      0.72245185	      0.20664287	     -0.07269409	      0.72245185	      0.17017648	     -0.05906355	      0.60591586	      0.15802102	     -0.03634386	      0.46026072	      0.14586555	     -0.45432375	      3.36124036	      1.08168061	      0.00000000	      0.00000000	     -0.00000000	      0.00000000	      0.00000000	     66.49323526	    -14.53402864	     28.41979284	     46.39695505	     63.31430849	      0.00000000	      5.00000014	     65.10452627	    -21.74200605	     27.67242712	     48.67947316	     62.65560637	      0.00000000	      5.00000014
      7.95000000	    -40.31110614	     -0.81188730	     -2.26227270	     -0.15241189	      1.02644251	      0.03548801	    105.69596966	     -4.96430033	      2.21255824	    116.78032880	      2.03820124	      2.33368729	    -15.64367295	      0.00000000	     77.78612619	     -6.66090808	     -1.33895074	     43.86352358	      0.76556291	      9.07851259	     -9.79783795	      0.00000000	     -0.06289594	      0.36662600	      0.19776222	     -0.11680405	      0.48761258	      0.21012236	     -0.10333174	      0.89141446	      0.21012236	     -0.07188377	      0.89141446	      0.17304194	     -0.05840517	      0.74762374	      0.16068180	     -0.03593874	      0.56790368	      0.14832166	     -0.44925939	      4.14734665	      1.09989412	      0.00000000	      0.00000000	     -0.00000000	      0.00000000	      0.00000000	     66.88658306	    -14.96724914	     29.83478716	     46.36314110	     63.57932754	      0.00000000	      5.00000014	     65.04751560	    -21.78398275	     28.02196251	     48.47574972	     62.79519394	      0.00000000	      5.00000014
      7.95800000	    -40.31980827	     -1.16275899	     -2.40342924	     -0.15203859	      1.02629793	      0.03508104	    106.94912209	     -4.83753794	      1.93977594	    117.52145151	      2.05113627	      2.86011654	    -15.62436365	      0.00000000	     76.58157876	     -6.92313806	     -1.47920218	     42.85148618	      0.74789952	      8.51082701	     -9.66171269	      0.00000000	     -0.06222196	      0.43027617	      0.22722598	     -0.11555240	      0.57226731	      0.24142760	     -0.10222445	      1.04617348	      0.24142760	     -0.07111347	      1.04617348	      0.19882273	     -0.05777931	      0.87741917	      0.18462111	     -0.03555363	      0.66649779	      0.17041948	     -0.44444521	      4.86737010	      1.26376271	      0.00000000	      0.00000000	     -0.00000000	      0.00000000	      0.00000000	     67.00630757	    -15.11404670	     29.95403923	     46.39055289	     63.61446936	      0.00000000	      5.00000014	     64.90914060	    -21.81334233	     28.13295547	     48.46271863	     62.82684411	      0.00000000	      5.00000014
      7.96700000	    -40.34177640	     -1.28612464	     -2.47251103	     -0.15178611	      1.02616620	      0.03468590	    108.18795444	     -4.72764078	      1.96603458	    118.15312798	      2.06216110	      4.19365116	    -15.03527840	      0.00000000	     75.48871581	     -7.05981275	     -2.02776543	     42.07415598	      0.73433255	      7.55497233	    -10.13443271	      0.00000000	     -0.06146704	      0.46249443	      0.24032081	     -0.11415044	      0.61511760	      0.25534086	     -0.10098420	      1.12450897	      0.25534086	     -0.07025068	      1.12450897	      0.21028071	     -0.05707829	      0.94311865	      0.19526066	     -0.03512227	      0.71640388	      0.18024061	     -0.43905292	      5.23182954	      1.33659224	      0.00000000	      0.00000000	     -0.00000000	      0.00000000	      0.00000000	     67.23205951	    -15.37550193	     30.72918383	     46.43400451	     63.80544953	      0.00000000	      5.00000014	     64.85063911	    -21.93189625	     28.40549463	     48.50569943	     62.95510998	      0.00000000	      5.00000014
